<svg data-v-fde0c5aa="" xmlns="http://www.w3.org/2000/svg" viewBox="0 0 300 300" class="font"><!----><defs data-v-fde0c5aa=""><!----></defs><rect data-v-fde0c5aa="" fill="#559F41" x="0" y="0" width="300px" height="300px" class="logo-background-square"></rect><defs data-v-fde0c5aa=""><!----></defs><g data-v-fde0c5aa="" id="aa999959-8438-441f-9ab5-041570f1bb81" fill="#F1CC07" transform="matrix(4.038920416186474,0,0,4.038920416186474,40.56544886067349,127.38204605453721)"><path d="M8.67 9.63L5.25 0.70L4.23 0.70L0.85 9.66L-0.14 10.01L-0.14 10.50L2.67 10.50L2.81 9.87L1.68 9.66L2.53 7.42L6.38 7.42L7.28 9.70L6.29 10.01L6.29 10.50L9.51 10.50L9.65 9.87ZM4.45 2.32L6.10 6.65L2.81 6.65ZM18.26 1.12C17.36 0.71 16.42 0.50 15.44 0.50C12.57 0.50 10.07 2.07 10.07 5.61C10.07 8.90 12.38 10.64 14.92 10.64C16.14 10.64 17.26 10.29 18.26 9.80L18.26 6.96L19.04 6.71L19.04 6.22L15.46 6.22L15.46 6.71L16.86 6.97L16.86 9.51C16.30 9.72 15.69 9.87 15.12 9.87C13.54 9.87 11.54 8.79 11.54 5.61C11.54 2.69 13.20 1.32 15.43 1.32C15.99 1.32 16.62 1.37 17.07 1.65L17.54 3.63L18.26 3.49ZM20.09 0.70L19.95 1.33L21.28 1.60L21.28 9.60L19.95 10.01L19.95 10.50L23.87 10.50L24.01 9.87L22.68 9.60L22.68 6.48L23.58 6.48C23.83 6.48 24.09 6.47 24.37 6.44L26.75 10.50L28.87 10.50L29.01 9.87L27.87 9.65L25.73 6.12C26.73 5.75 27.51 4.98 27.51 3.68C27.51 0.99 25.28 0.70 23.58 0.70ZM23.58 1.47C24.77 1.47 26.04 1.86 26.04 3.68C26.04 5.43 24.77 5.71 23.58 5.71L22.68 5.71L22.68 1.47ZM34.40 9.93C31.99 9.93 30.97 7.66 30.97 5.35C30.97 3.21 32.21 1.27 34.08 1.27C36.48 1.27 37.51 3.54 37.51 5.85C37.51 7.99 36.26 9.93 34.40 9.93ZM34.23 0.50C31.29 0.50 29.50 2.77 29.50 5.59C29.50 8.27 31.14 10.70 34.24 10.70C37.18 10.70 38.98 8.43 38.98 5.61C38.98 2.93 37.32 0.50 34.23 0.50ZM44.27 10.50L46.87 2.97L49.24 10.50L50.11 10.50L53.17 1.55L54.33 1.19L54.33 0.70L51.20 0.70L51.06 1.33L52.29 1.55L49.95 8.33L47.56 0.70L46.76 0.70L44.14 8.30L42.10 1.53L43.30 1.19L43.30 0.70L39.75 0.70L39.61 1.33L40.73 1.58L43.41 10.50Z"></path></g><!----><!----></svg>